<svg xmlns="http://www.w3.org/2000/svg" viewBox="0 0 196 32" width="196" height="32">
  <g transform="scale(0.2857)">    <rect x="2" y="2" width="76" height="108" rx="10" fill="#5BB8E8" stroke="rgba(255,255,255,0.1)" stroke-width="1"/>    <rect x="8" y="8" width="64" height="96" rx="7" fill="none" stroke="#fff" stroke-width="2"/>    <rect x="20" y="38" width="40" height="10" rx="2" fill="#fff"/>    <rect x="20" y="56" width="40" height="10" rx="2" fill="#fff"/>  </g>
  <path transform="translate(31, 22)" d="M1.94-14L7.66-14Q8.94-14 9.96-13.71Q10.98-13.42 11.70-12.83Q12.42-12.24 12.81-11.36Q13.20-10.48 13.20-9.32L13.20-9.32Q13.20-8.14 12.81-7.26Q12.42-6.38 11.70-5.80Q10.98-5.22 9.96-4.92Q8.94-4.62 7.66-4.62L7.66-4.62L5.10-4.62L5.10-0.54Q5.10-0.32 4.94-0.16Q4.78 0 4.56 0L4.56 0L1.94 0Q1.72 0 1.56-0.16Q1.40-0.32 1.40-0.54L1.40-0.54L1.40-13.46Q1.40-13.68 1.56-13.84Q1.72-14 1.94-14L1.94-14ZM5.10-10.90L5.10-7.74L7.56-7.74Q8.40-7.74 8.95-8.11Q9.50-8.48 9.50-9.32L9.50-9.32Q9.50-10.16 8.95-10.53Q8.40-10.90 7.56-10.90L7.56-10.90L5.10-10.90ZM25.14-5.96L25.14-5.96Q25.16-5.66 25.16-5.19Q25.16-4.72 25.14-4.42L25.14-4.42Q25.10-3.46 24.70-2.62Q24.30-1.78 23.60-1.15Q22.90-0.52 21.91-0.16Q20.92 0.20 19.70 0.20L19.70 0.20Q18.48 0.20 17.49-0.16Q16.50-0.52 15.80-1.15Q15.10-1.78 14.70-2.62Q14.30-3.46 14.26-4.42L14.26-4.42Q14.24-4.72 14.24-5.19Q14.24-5.66 14.26-5.96L14.26-5.96Q14.28-6.92 14.68-7.76Q15.08-8.60 15.79-9.23Q16.50-9.86 17.49-10.23Q18.48-10.60 19.70-10.60L19.70-10.60Q20.92-10.60 21.91-10.23Q22.90-9.86 23.61-9.23Q24.32-8.60 24.71-7.76Q25.10-6.92 25.14-5.96ZM17.86-4.52L17.86-4.52Q17.92-3.76 18.41-3.33Q18.90-2.90 19.70-2.90L19.70-2.90Q20.50-2.90 20.99-3.33Q21.48-3.76 21.54-4.52L21.54-4.52Q21.58-4.82 21.58-5.20Q21.58-5.58 21.54-5.88L21.54-5.88Q21.48-6.64 20.99-7.07Q20.50-7.50 19.70-7.50L19.70-7.50Q18.90-7.50 18.41-7.07Q17.92-6.64 17.86-5.88L17.86-5.88Q17.82-5.58 17.82-5.20Q17.82-4.82 17.86-4.52ZM31.10-10.60L31.10-10.60Q31.68-10.60 32.12-10.48Q32.56-10.36 32.88-10.18Q33.20-10 33.42-9.79Q33.64-9.58 33.78-9.40L33.78-9.40L33.78-13.66Q33.78-13.88 33.94-14.04Q34.10-14.20 34.32-14.20L34.32-14.20L36.84-14.20Q37.06-14.20 37.22-14.04Q37.38-13.88 37.38-13.66L37.38-13.66L37.38-0.54Q37.38-0.32 37.22-0.16Q37.06 0 36.84 0L36.84 0L34.42 0Q34.20 0 34.04-0.16Q33.88-0.32 33.88-0.54L33.88-0.54L33.88-1Q33.70-0.78 33.49-0.57Q33.28-0.36 32.97-0.19Q32.66-0.02 32.21 0.09Q31.76 0.20 31.10 0.20L31.10 0.20Q30.20 0.20 29.40-0.07Q28.60-0.34 28-0.91Q27.40-1.48 27.03-2.34Q26.66-3.20 26.62-4.38L26.62-4.38Q26.60-4.68 26.60-5.19Q26.60-5.70 26.62-6L26.62-6Q26.66-7.18 27.03-8.04Q27.40-8.90 28-9.47Q28.60-10.04 29.40-10.32Q30.20-10.60 31.10-10.60ZM30.20-5.76L30.20-5.76Q30.14-5.20 30.20-4.64L30.20-4.64Q30.26-3.94 30.66-3.42Q31.06-2.90 32-2.90L32-2.90Q32.44-2.90 32.76-3.04Q33.08-3.18 33.29-3.41Q33.50-3.64 33.62-3.92Q33.74-4.20 33.78-4.50L33.78-4.50Q33.82-4.80 33.82-5.20Q33.82-5.60 33.78-5.90L33.78-5.90Q33.74-6.20 33.62-6.48Q33.50-6.76 33.29-6.99Q33.08-7.22 32.76-7.36Q32.44-7.50 32-7.50L32-7.50Q31.06-7.50 30.66-6.98Q30.26-6.46 30.20-5.76ZM43.30-13.66L43.30-0.54Q43.30-0.32 43.14-0.16Q42.98 0 42.76 0L42.76 0L40.24 0Q40.02 0 39.86-0.16Q39.70-0.32 39.70-0.54L39.70-0.54L39.70-13.66Q39.70-13.88 39.86-14.04Q40.02-14.20 40.24-14.20L40.24-14.20L42.76-14.20Q42.98-14.20 43.14-14.04Q43.30-13.88 43.30-13.66L43.30-13.66ZM49.22-9.86L49.22-0.54Q49.22-0.32 49.06-0.16Q48.90 0 48.68 0L48.68 0L46.16 0Q45.94 0 45.78-0.16Q45.62-0.32 45.62-0.54L45.62-0.54L45.62-9.86Q45.62-10.08 45.78-10.24Q45.94-10.40 46.16-10.40L46.16-10.40L48.68-10.40Q48.90-10.40 49.06-10.24Q49.22-10.08 49.22-9.86L49.22-9.86ZM49.22-14.06L49.22-12.04Q49.22-11.82 49.06-11.66Q48.90-11.50 48.68-11.50L48.68-11.50L46.16-11.50Q45.94-11.50 45.78-11.66Q45.62-11.82 45.62-12.04L45.62-12.04L45.62-14.06Q45.62-14.28 45.78-14.44Q45.94-14.60 46.16-14.60L46.16-14.60L48.68-14.60Q48.90-14.60 49.06-14.44Q49.22-14.28 49.22-14.06L49.22-14.06ZM56.32-7.30L56.32-4.06Q56.32-3.60 56.52-3.35Q56.72-3.10 57.18-3.10L57.18-3.10L58.78-3.10Q59-3.10 59.16-2.94Q59.32-2.78 59.32-2.56L59.32-2.56L59.32-0.54Q59.32-0.32 59.16-0.16Q59 0 58.78 0L58.78 0L56.88 0Q55.94 0 55.17-0.27Q54.40-0.54 53.86-1.05Q53.32-1.56 53.02-2.29Q52.72-3.02 52.72-3.94L52.72-3.94L52.72-7.30L51.24-7.30Q51.02-7.30 50.86-7.46Q50.70-7.62 50.70-7.84L50.70-7.84L50.70-9.86Q50.70-10.08 50.86-10.24Q51.02-10.40 51.24-10.40L51.24-10.40L52.72-10.40L52.72-13.66Q52.72-13.88 52.88-14.04Q53.04-14.20 53.26-14.20L53.26-14.20L55.78-14.20Q56-14.20 56.16-14.04Q56.32-13.88 56.32-13.66L56.32-13.66L56.32-10.40L58.58-10.40Q58.80-10.40 58.96-10.24Q59.12-10.08 59.12-9.86L59.12-9.86L59.12-7.84Q59.12-7.62 58.96-7.46Q58.80-7.30 58.58-7.30L58.58-7.30L56.32-7.30ZM70.80-4.06L64.14-4.06Q64.14-3.60 64.31-3.30Q64.48-3 64.74-2.82Q65-2.64 65.32-2.57Q65.64-2.50 65.94-2.50L65.94-2.50Q66.54-2.50 66.89-2.62Q67.24-2.74 67.48-2.96L67.48-2.96Q67.70-3.14 67.80-3.19Q67.90-3.24 68.14-3.24L68.14-3.24L70.74-3.24Q71.18-3.24 71.18-2.80L71.18-2.80Q71.18-2.56 70.88-2.07Q70.58-1.58 69.95-1.07Q69.32-0.56 68.32-0.18Q67.32 0.20 65.94 0.20L65.94 0.20Q64.64 0.20 63.63-0.17Q62.62-0.54 61.93-1.24Q61.24-1.94 60.89-2.94Q60.54-3.94 60.54-5.20L60.54-5.20Q60.54-6.36 60.89-7.35Q61.24-8.34 61.93-9.06Q62.62-9.78 63.63-10.19Q64.64-10.60 65.94-10.60L65.94-10.60Q67.40-10.60 68.43-10.11Q69.46-9.62 70.11-8.84Q70.76-8.06 71.05-7.09Q71.34-6.12 71.34-5.16L71.34-5.16L71.34-4.60Q71.34-4.38 71.18-4.22Q71.02-4.06 70.80-4.06L70.80-4.06ZM65.94-7.90L65.94-7.90Q65.10-7.90 64.66-7.40Q64.22-6.90 64.14-6.28L64.14-6.28L67.74-6.28Q67.66-6.90 67.22-7.40Q66.78-7.90 65.94-7.90Z" fill="#F9FAFB"/>
  <path transform="translate(107.24, 22)" d="M1.94-14L7.24-14Q8.62-14 9.76-13.59Q10.90-13.18 11.73-12.44Q12.56-11.70 13.03-10.67Q13.50-9.64 13.56-8.42L13.56-8.42Q13.58-8 13.58-7.65Q13.58-7.30 13.58-6.98Q13.58-6.66 13.58-6.32Q13.58-5.98 13.56-5.58L13.56-5.58Q13.50-4.34 13.04-3.32Q12.58-2.30 11.77-1.56Q10.96-0.82 9.84-0.41Q8.72 0 7.34 0L7.34 0L1.94 0Q1.72 0 1.56-0.16Q1.40-0.32 1.40-0.54L1.40-0.54L1.40-13.46Q1.40-13.68 1.56-13.84Q1.72-14 1.94-14L1.94-14ZM9.86-8.50L9.86-8.50Q9.74-10.80 7.14-10.80L7.14-10.80L5.10-10.80L5.10-3.20L7.24-3.20Q9.76-3.20 9.86-5.50L9.86-5.50Q9.88-5.92 9.88-6.29Q9.88-6.66 9.88-7.01Q9.88-7.36 9.88-7.72Q9.88-8.08 9.86-8.50ZM25.40-4.06L18.74-4.06Q18.74-3.60 18.91-3.30Q19.08-3 19.34-2.82Q19.60-2.64 19.92-2.57Q20.24-2.50 20.54-2.50L20.54-2.50Q21.14-2.50 21.49-2.62Q21.84-2.74 22.08-2.96L22.08-2.96Q22.30-3.14 22.40-3.19Q22.50-3.24 22.74-3.24L22.74-3.24L25.34-3.24Q25.78-3.24 25.78-2.80L25.78-2.80Q25.78-2.56 25.48-2.07Q25.18-1.58 24.55-1.07Q23.92-0.56 22.92-0.18Q21.92 0.20 20.54 0.20L20.54 0.20Q19.24 0.20 18.23-0.17Q17.22-0.54 16.53-1.24Q15.84-1.94 15.49-2.94Q15.14-3.94 15.14-5.20L15.14-5.20Q15.14-6.36 15.49-7.35Q15.84-8.34 16.53-9.06Q17.22-9.78 18.23-10.19Q19.24-10.60 20.54-10.60L20.54-10.60Q22-10.60 23.03-10.11Q24.06-9.62 24.71-8.84Q25.36-8.06 25.65-7.09Q25.94-6.12 25.94-5.16L25.94-5.16L25.94-4.60Q25.94-4.38 25.78-4.22Q25.62-4.06 25.40-4.06L25.40-4.06ZM20.54-7.90L20.54-7.90Q19.70-7.90 19.26-7.40Q18.82-6.90 18.74-6.28L18.74-6.28L22.34-6.28Q22.26-6.90 21.82-7.40Q21.38-7.90 20.54-7.90ZM33.64-3.12L33.64-3.12Q33.64-3.34 33.49-3.46Q33.34-3.58 32.98-3.66Q32.62-3.74 32.03-3.82Q31.44-3.90 30.56-4.06L30.56-4.06Q29.04-4.34 28.22-5.18Q27.40-6.02 27.40-7.38L27.40-7.38Q27.40-8.06 27.74-8.64Q28.08-9.22 28.69-9.66Q29.30-10.10 30.16-10.35Q31.02-10.60 32.08-10.60L32.08-10.60Q33.12-10.60 34-10.35Q34.88-10.10 35.52-9.71Q36.16-9.32 36.53-8.81Q36.90-8.30 36.94-7.80L36.94-7.80Q36.96-7.58 36.79-7.42Q36.62-7.26 36.40-7.26L36.40-7.26L34.02-7.26Q33.80-7.26 33.67-7.36Q33.54-7.46 33.36-7.58Q33.18-7.70 32.89-7.80Q32.60-7.90 32.08-7.90L32.08-7.90Q31.62-7.90 31.31-7.77Q31-7.64 31-7.34L31-7.34Q31-7.12 31.10-7Q31.20-6.88 31.50-6.81Q31.80-6.74 32.34-6.66Q32.88-6.58 33.76-6.44L33.76-6.44Q35.58-6.14 36.41-5.21Q37.24-4.28 37.24-3.08L37.24-3.08Q37.24-2.40 36.90-1.81Q36.56-1.22 35.90-0.77Q35.24-0.32 34.30-0.06Q33.36 0.20 32.16 0.20L32.16 0.20Q30.96 0.20 30.05-0.07Q29.14-0.34 28.52-0.76Q27.90-1.18 27.57-1.68Q27.24-2.18 27.20-2.66L27.20-2.66Q27.18-2.88 27.35-3.04Q27.52-3.20 27.74-3.20L27.74-3.20L30.22-3.20Q30.44-3.20 30.54-3.09Q30.64-2.98 30.80-2.85Q30.96-2.72 31.26-2.61Q31.56-2.50 32.16-2.50L32.16-2.50Q32.76-2.50 33.20-2.66Q33.64-2.82 33.64-3.12ZM42.60-13.66L42.60-7.18L45.24-10.06Q45.34-10.16 45.54-10.28Q45.74-10.40 46.02-10.40L46.02-10.40L48.96-10.40Q49.16-10.40 49.30-10.26Q49.44-10.12 49.44-9.92L49.44-9.92Q49.44-9.82 49.41-9.75Q49.38-9.68 49.22-9.52L49.22-9.52L45.66-5.56L49.86-0.86Q49.98-0.72 50.02-0.65Q50.06-0.58 50.06-0.48L50.06-0.48Q50.06-0.28 49.92-0.14Q49.78 0 49.58 0L49.58 0L46.60 0Q46.30 0 46.11-0.09Q45.92-0.18 45.78-0.34L45.78-0.34L42.60-3.92L42.60-0.54Q42.60-0.32 42.44-0.16Q42.28 0 42.06 0L42.06 0L39.54 0Q39.32 0 39.16-0.16Q39-0.32 39-0.54L39-0.54L39-13.66Q39-13.88 39.16-14.04Q39.32-14.20 39.54-14.20L39.54-14.20L42.06-14.20Q42.28-14.20 42.44-14.04Q42.60-13.88 42.60-13.66L42.60-13.66ZM56-7.30L56-4.06Q56-3.60 56.20-3.35Q56.40-3.10 56.86-3.10L56.86-3.10L58.46-3.10Q58.68-3.10 58.84-2.94Q59-2.78 59-2.56L59-2.56L59-0.54Q59-0.32 58.84-0.16Q58.68 0 58.46 0L58.46 0L56.56 0Q55.62 0 54.85-0.27Q54.08-0.54 53.54-1.05Q53-1.56 52.70-2.29Q52.40-3.02 52.40-3.94L52.40-3.94L52.40-7.30L50.92-7.30Q50.70-7.30 50.54-7.46Q50.38-7.62 50.38-7.84L50.38-7.84L50.38-9.86Q50.38-10.08 50.54-10.24Q50.70-10.40 50.92-10.40L50.92-10.40L52.40-10.40L52.40-13.66Q52.40-13.88 52.56-14.04Q52.72-14.20 52.94-14.20L52.94-14.20L55.46-14.20Q55.68-14.20 55.84-14.04Q56-13.88 56-13.66L56-13.66L56-10.40L58.26-10.40Q58.48-10.40 58.64-10.24Q58.80-10.08 58.80-9.86L58.80-9.86L58.80-7.84Q58.80-7.62 58.64-7.46Q58.48-7.30 58.26-7.30L58.26-7.30L56-7.30ZM71.14-5.96L71.14-5.96Q71.16-5.66 71.16-5.19Q71.16-4.72 71.14-4.42L71.14-4.42Q71.10-3.46 70.70-2.62Q70.30-1.78 69.60-1.15Q68.90-0.52 67.91-0.16Q66.92 0.20 65.70 0.20L65.70 0.20Q64.48 0.20 63.49-0.16Q62.50-0.52 61.80-1.15Q61.10-1.78 60.70-2.62Q60.30-3.46 60.26-4.42L60.26-4.42Q60.24-4.72 60.24-5.19Q60.24-5.66 60.26-5.96L60.26-5.96Q60.28-6.92 60.68-7.76Q61.08-8.60 61.79-9.23Q62.50-9.86 63.49-10.23Q64.48-10.60 65.70-10.60L65.70-10.60Q66.92-10.60 67.91-10.23Q68.90-9.86 69.61-9.23Q70.32-8.60 70.71-7.76Q71.10-6.92 71.14-5.96ZM63.86-4.52L63.86-4.52Q63.92-3.76 64.41-3.33Q64.90-2.90 65.70-2.90L65.70-2.90Q66.50-2.90 66.99-3.33Q67.48-3.76 67.54-4.52L67.54-4.52Q67.58-4.82 67.58-5.20Q67.58-5.58 67.54-5.88L67.54-5.88Q67.48-6.64 66.99-7.07Q66.50-7.50 65.70-7.50L65.70-7.50Q64.90-7.50 64.41-7.07Q63.92-6.64 63.86-5.88L63.86-5.88Q63.82-5.58 63.82-5.20Q63.82-4.82 63.86-4.52ZM79.30 0.20L79.30 0.20Q78.72 0.20 78.28 0.08Q77.84-0.04 77.52-0.22Q77.20-0.40 76.98-0.61Q76.76-0.82 76.62-1L76.62-1L76.62 3.26Q76.62 3.48 76.46 3.64Q76.30 3.80 76.08 3.80L76.08 3.80L73.56 3.80Q73.34 3.80 73.18 3.64Q73.02 3.48 73.02 3.26L73.02 3.26L73.02-9.86Q73.02-10.08 73.18-10.24Q73.34-10.40 73.56-10.40L73.56-10.40L75.98-10.40Q76.20-10.40 76.36-10.24Q76.52-10.08 76.52-9.86L76.52-9.86L76.52-9.40Q76.70-9.60 76.91-9.82Q77.12-10.04 77.43-10.21Q77.74-10.38 78.19-10.49Q78.64-10.60 79.30-10.60L79.30-10.60Q80.20-10.60 81.00-10.33Q81.80-10.06 82.40-9.49Q83.00-8.92 83.37-8.06Q83.74-7.20 83.78-6.02L83.78-6.02Q83.80-5.72 83.80-5.21Q83.80-4.70 83.78-4.40L83.78-4.40Q83.74-3.22 83.37-2.36Q83.00-1.50 82.40-0.93Q81.80-0.36 81.00-0.08Q80.20 0.20 79.30 0.20ZM80.20-4.64L80.20-4.64Q80.26-5.20 80.20-5.76L80.20-5.76Q80.14-6.46 79.74-6.98Q79.34-7.50 78.40-7.50L78.40-7.50Q77.96-7.50 77.64-7.36Q77.32-7.22 77.11-6.99Q76.90-6.76 76.78-6.48Q76.66-6.20 76.62-5.90L76.62-5.90Q76.58-5.60 76.58-5.20Q76.58-4.80 76.62-4.50L76.62-4.50Q76.66-4.20 76.78-3.92Q76.90-3.64 77.11-3.41Q77.32-3.18 77.64-3.04Q77.96-2.90 78.40-2.90L78.40-2.90Q79.34-2.90 79.74-3.42Q80.14-3.94 80.20-4.64Z" fill="#5BB8E8"/>
</svg>