<svg xmlns="http://www.w3.org/2000/svg" viewBox="0 0 107 32" width="107" height="32">
  <g transform="scale(0.2857)">
    <rect x="2" y="2" width="76" height="108" rx="10" fill="currentColor"/>
    <rect x="8" y="8" width="64" height="96" rx="7" fill="none" stroke="#fff" stroke-width="2"/>
    <rect x="20" y="38" width="40" height="10" rx="2" fill="#fff"/>
    <rect x="20" y="56" width="40" height="10" rx="2" fill="#fff"/>
  </g>
  <path transform="translate(31, 22)" d="M1.94-14L7.66-14Q8.94-14 9.96-13.71Q10.98-13.42 11.70-12.83Q12.42-12.24 12.81-11.36Q13.20-10.48 13.20-9.32L13.20-9.32Q13.20-8.14 12.81-7.26Q12.42-6.38 11.70-5.80Q10.98-5.22 9.96-4.92Q8.94-4.62 7.66-4.62L7.66-4.62L5.10-4.62L5.10-0.54Q5.10-0.32 4.94-0.16Q4.78 0 4.56 0L4.56 0L1.94 0Q1.72 0 1.56-0.16Q1.40-0.32 1.40-0.54L1.40-0.54L1.40-13.46Q1.40-13.68 1.56-13.84Q1.72-14 1.94-14L1.94-14ZM5.10-10.90L5.10-7.74L7.56-7.74Q8.40-7.74 8.95-8.11Q9.50-8.48 9.50-9.32L9.50-9.32Q9.50-10.16 8.95-10.53Q8.40-10.90 7.56-10.90L7.56-10.90L5.10-10.90ZM25.14-5.96L25.14-5.96Q25.16-5.66 25.16-5.19Q25.16-4.72 25.14-4.42L25.14-4.42Q25.10-3.46 24.70-2.62Q24.30-1.78 23.60-1.15Q22.90-0.52 21.91-0.16Q20.92 0.20 19.70 0.20L19.70 0.20Q18.48 0.20 17.49-0.16Q16.50-0.52 15.80-1.15Q15.10-1.78 14.70-2.62Q14.30-3.46 14.26-4.42L14.26-4.42Q14.24-4.72 14.24-5.19Q14.24-5.66 14.26-5.96L14.26-5.96Q14.28-6.92 14.68-7.76Q15.08-8.60 15.79-9.23Q16.50-9.86 17.49-10.23Q18.48-10.60 19.70-10.60L19.70-10.60Q20.92-10.60 21.91-10.23Q22.90-9.86 23.61-9.23Q24.32-8.60 24.71-7.76Q25.10-6.92 25.14-5.96ZM17.86-4.52L17.86-4.52Q17.92-3.76 18.41-3.33Q18.90-2.90 19.70-2.90L19.70-2.90Q20.50-2.90 20.99-3.33Q21.48-3.76 21.54-4.52L21.54-4.52Q21.58-4.82 21.58-5.20Q21.58-5.58 21.54-5.88L21.54-5.88Q21.48-6.64 20.99-7.07Q20.50-7.50 19.70-7.50L19.70-7.50Q18.90-7.50 18.41-7.07Q17.92-6.64 17.86-5.88L17.86-5.88Q17.82-5.58 17.82-5.20Q17.82-4.82 17.86-4.52ZM31.10-10.60L31.10-10.60Q31.68-10.60 32.12-10.48Q32.56-10.36 32.88-10.18Q33.20-10 33.42-9.79Q33.64-9.58 33.78-9.40L33.78-9.40L33.78-13.66Q33.78-13.88 33.94-14.04Q34.10-14.20 34.32-14.20L34.32-14.20L36.84-14.20Q37.06-14.20 37.22-14.04Q37.38-13.88 37.38-13.66L37.38-13.66L37.38-0.54Q37.38-0.32 37.22-0.16Q37.06 0 36.84 0L36.84 0L34.42 0Q34.20 0 34.04-0.16Q33.88-0.32 33.88-0.54L33.88-0.54L33.88-1Q33.70-0.78 33.49-0.57Q33.28-0.36 32.97-0.19Q32.66-0.02 32.21 0.09Q31.76 0.20 31.10 0.20L31.10 0.20Q30.20 0.20 29.40-0.07Q28.60-0.34 28-0.91Q27.40-1.48 27.03-2.34Q26.66-3.20 26.62-4.38L26.62-4.38Q26.60-4.68 26.60-5.19Q26.60-5.70 26.62-6L26.62-6Q26.66-7.18 27.03-8.04Q27.40-8.90 28-9.47Q28.60-10.04 29.40-10.32Q30.20-10.60 31.10-10.60ZM30.20-5.76L30.20-5.76Q30.14-5.20 30.20-4.64L30.20-4.64Q30.26-3.94 30.66-3.42Q31.06-2.90 32-2.90L32-2.90Q32.44-2.90 32.76-3.04Q33.08-3.18 33.29-3.41Q33.50-3.64 33.62-3.92Q33.74-4.20 33.78-4.50L33.78-4.50Q33.82-4.80 33.82-5.20Q33.82-5.60 33.78-5.90L33.78-5.90Q33.74-6.20 33.62-6.48Q33.50-6.76 33.29-6.99Q33.08-7.22 32.76-7.36Q32.44-7.50 32-7.50L32-7.50Q31.06-7.50 30.66-6.98Q30.26-6.46 30.20-5.76ZM43.30-13.66L43.30-0.54Q43.30-0.32 43.14-0.16Q42.98 0 42.76 0L42.76 0L40.24 0Q40.02 0 39.86-0.16Q39.70-0.32 39.70-0.54L39.70-0.54L39.70-13.66Q39.70-13.88 39.86-14.04Q40.02-14.20 40.24-14.20L40.24-14.20L42.76-14.20Q42.98-14.20 43.14-14.04Q43.30-13.88 43.30-13.66L43.30-13.66ZM49.22-9.86L49.22-0.54Q49.22-0.32 49.06-0.16Q48.90 0 48.68 0L48.68 0L46.16 0Q45.94 0 45.78-0.16Q45.62-0.32 45.62-0.54L45.62-0.54L45.62-9.86Q45.62-10.08 45.78-10.24Q45.94-10.40 46.16-10.40L46.16-10.40L48.68-10.40Q48.90-10.40 49.06-10.24Q49.22-10.08 49.22-9.86L49.22-9.86ZM49.22-14.06L49.22-12.04Q49.22-11.82 49.06-11.66Q48.90-11.50 48.68-11.50L48.68-11.50L46.16-11.50Q45.94-11.50 45.78-11.66Q45.62-11.82 45.62-12.04L45.62-12.04L45.62-14.06Q45.62-14.28 45.78-14.44Q45.94-14.60 46.16-14.60L46.16-14.60L48.68-14.60Q48.90-14.60 49.06-14.44Q49.22-14.28 49.22-14.06L49.22-14.06ZM56.32-7.30L56.32-4.06Q56.32-3.60 56.52-3.35Q56.72-3.10 57.18-3.10L57.18-3.10L58.78-3.10Q59-3.10 59.16-2.94Q59.32-2.78 59.32-2.56L59.32-2.56L59.32-0.54Q59.32-0.32 59.16-0.16Q59 0 58.78 0L58.78 0L56.88 0Q55.94 0 55.17-0.27Q54.40-0.54 53.86-1.05Q53.32-1.56 53.02-2.29Q52.72-3.02 52.72-3.94L52.72-3.94L52.72-7.30L51.24-7.30Q51.02-7.30 50.86-7.46Q50.70-7.62 50.70-7.84L50.70-7.84L50.70-9.86Q50.70-10.08 50.86-10.24Q51.02-10.40 51.24-10.40L51.24-10.40L52.72-10.40L52.72-13.66Q52.72-13.88 52.88-14.04Q53.04-14.20 53.26-14.20L53.26-14.20L55.78-14.20Q56-14.20 56.16-14.04Q56.32-13.88 56.32-13.66L56.32-13.66L56.32-10.40L58.58-10.40Q58.80-10.40 58.96-10.24Q59.12-10.08 59.12-9.86L59.12-9.86L59.12-7.84Q59.12-7.62 58.96-7.46Q58.80-7.30 58.58-7.30L58.58-7.30L56.32-7.30ZM70.80-4.06L64.14-4.06Q64.14-3.60 64.31-3.30Q64.48-3 64.74-2.82Q65-2.64 65.32-2.57Q65.64-2.50 65.94-2.50L65.94-2.50Q66.54-2.50 66.89-2.62Q67.24-2.74 67.48-2.96L67.48-2.96Q67.70-3.14 67.80-3.19Q67.90-3.24 68.14-3.24L68.14-3.24L70.74-3.24Q71.18-3.24 71.18-2.80L71.18-2.80Q71.18-2.56 70.88-2.07Q70.58-1.58 69.95-1.07Q69.32-0.56 68.32-0.18Q67.32 0.20 65.94 0.20L65.94 0.20Q64.64 0.20 63.63-0.17Q62.62-0.54 61.93-1.24Q61.24-1.94 60.89-2.94Q60.54-3.94 60.54-5.20L60.54-5.20Q60.54-6.36 60.89-7.35Q61.24-8.34 61.93-9.06Q62.62-9.78 63.63-10.19Q64.64-10.60 65.94-10.60L65.94-10.60Q67.40-10.60 68.43-10.11Q69.46-9.62 70.11-8.84Q70.76-8.06 71.05-7.09Q71.34-6.12 71.34-5.16L71.34-5.16L71.34-4.60Q71.34-4.38 71.18-4.22Q71.02-4.06 70.80-4.06L70.80-4.06ZM65.94-7.90L65.94-7.90Q65.10-7.90 64.66-7.40Q64.22-6.90 64.14-6.28L64.14-6.28L67.74-6.28Q67.66-6.90 67.22-7.40Q66.78-7.90 65.94-7.90Z" fill="currentColor"/>
</svg>